<svg xmlns="http://www.w3.org/2000/svg" width="256" height="244" preserveAspectRatio="xMidYMid"><rect id="backgroundrect" width="100%" height="100%" x="0" y="0" fill="none" stroke="none"/><g class="currentLayer" style=""><title>Layer 1</title><path d="M141.24841578748038,135.63828463297332 c7.354899004039672,-0.7815465748469737 12.934719175729345,-7.289639934308888 12.680914044437197,-15.100310918515758 c-0.25302658794462773,-7.8098718568297265 -6.594262153510749,-14.058248818719793 -14.20296628884257,-14.058248818719793 h-0.5068317192367772 c-7.863287809971494,0.26051552494899133 -13.949939700897941,7.029124409359897 -13.696134569605793,15.099511791138614 c0.2538051312921496,3.905335492103436 1.7750788323500013,7.289639934308888 4.057767927284299,9.632681404095521 c-8.623146117152897,17.44335238830239 -21.811670424174395,30.199822709654374 -41.59445688470663,40.87376708616872 c-13.442329438313644,7.289639934308888 -27.391490595864063,9.893196929044512 -41.340651753414484,8.071186509155861 c-11.413445474671494,-1.562294022316803 -20.29039672311654,-6.768608884410906 -25.87099543815373,-15.36082644346475 c-8.115535854568598,-12.756470321351983 -8.876172705097524,-26.55500274249993 -2.0281054202946276,-40.352736036270734 c4.8191833211607475,-9.893196929044512 12.427108913145046,-17.182836863353398 17.246292234305795,-20.82765683050784 c-1.0144419818210748,-3.3843044422054533 -2.5364942262264476,-9.111650354197538 -3.2971310767553743,-13.27670224387282 c-36.77605210689341,27.335750189969758 -32.97131076755374,64.30418178403504 -21.811670424174395,81.74673504496027 c8.369340985860747,13.017784973678117 25.362606632221915,21.088172355456834 44.130951110933076,21.088172355456834 c5.072209909105374,0 10.144419818210748,-0.5210310498979828 15.217408270663643,-1.8220104198886513 c32.46447904831695,-6.508892486839058 57.06644883000995,-26.29528634492808 71.01560998756037,-55.713562479735494 zm44.63856137351738,-32.28234865449201 c-19.275954741295468,-23.17069830029448 -47.68188731898061,-35.92716862164646 -80.14636636729756,-35.92716862164646 h-4.057767927284299 c-2.2826890949342986,-4.686082939573264 -7.101872416095046,-7.810670984206872 -12.42788745649257,-7.810670984206872 h-0.5076102625842999 C80.8856144240626,59.878611897576974 74.79896253313613,66.64722078198787 75.05198912108078,74.71840729114373 c0.2538051312921496,7.8098718568297265 6.594262153510749,14.058248818719793 14.20296628884257,14.058248818719793 h0.5068317192367772 c5.579820171689673,-0.26051552494899133 10.39900349285042,-3.905335492103436 12.42788745649257,-8.851933956625691 h4.565378189868597 c19.275954741295468,0 37.536688957422335,5.727345911992086 54.02312288454672,16.922321338404405 c12.680914044437197,8.5914184316767 21.811670424174395,19.786393858089024 26.883880333279766,33.32361162691084 c4.31157305857645,10.934459901463331 4.057767927284299,21.608404277977673 -0.5076102625842999,30.720853759552355 c-7.101093872747524,13.7977332937708 -19.021371066655792,21.34788875302868 -34.746389599903736,21.34788875302868 c-10.14519836155827,0 -19.782786460532243,-3.124588044633606 -24.855774912985137,-5.4676295144202385 c-2.789520814171076,2.6035569947356234 -7.862509266623972,6.768608884410906 -11.413445474671494,9.372965006523675 c10.906613755434718,5.2063148620941035 22.066254098814063,8.070387381778717 32.718284179609114,8.070387381778717 c24.34816465040084,0 42.35587227858308,-13.798532421147947 49.20393956338598,-27.596265714918754 c7.354899004039672,-15.100310918515758 6.847288741455375,-41.1342826111177 -12.17408232520042,-63.26291881161622 zM57.04428149289852,140.06305292022049 c0.2538051312921496,7.810670984206872 6.594262153510749,14.058248818719793 14.20296628884257,14.058248818719793 h0.5076102625842999 c7.862509266623972,-0.2597163975718472 13.949161157550423,-7.029124409359897 13.695356026258272,-15.099511791138614 c-0.25302658794462773,-7.810670984206872 -6.594262153510749,-14.058248818719793 -14.20296628884257,-14.058248818719793 h-0.5068317192367772 c-0.5076102625842999,0 -1.2690256564607463,0 -1.7750788323500013,0.2597163975718472 c-10.39900349285042,-17.703068785874237 -14.710576551426868,-36.96763246668814 -13.188524307021497,-57.79528929719597 c1.013663438473553,-15.620542841036597 6.086651890926449,-29.158559737235553 14.963603139371497,-40.35353516364788 c7.354899004039672,-9.632681404095521 21.55786529288224,-14.318764343668786 31.196231935203734,-14.57848074124063 c26.883880333279766,-0.5210310498979828 38.29654726460374,33.84384354943167 39.057962658480186,47.64237597057963 c3.2971310767553743,0.7807474474698288 8.876951248445046,2.6035569947356234 12.681692587784719,3.905335492103436 C150.63219875516222,21.868917331092867 125.2695921229403,-0.0000024718337954254868 100.92220601588699,-0.0000024718337954254868 c-22.82689094934299,0 -43.87792452298846,16.922321338404405 -52.248044052196725,41.91503005858753 c-11.666472062616123,33.32361162691084 -4.057767927284299,65.34544475645386 10.14519836155827,90.59866900158598 c-1.2674685697657022,1.8220104198886513 -2.02888396364215,4.686082939573264 -1.7750788323500013,7.550155459257879 z" fill="#764ABC" id="svg_1" class=""/></g></svg>